<?xml version="1.0" standalone="no"?>
<!DOCTYPE svg PUBLIC "-//W3C//DTD SVG 20010904//EN"
 "http://www.w3.org/TR/2001/REC-SVG-20010904/DTD/svg10.dtd">
<svg version="1.0" xmlns="http://www.w3.org/2000/svg"
 width="400.000000pt" height="400.000000pt" viewBox="0 0 400.000000 400.000000"
 preserveAspectRatio="xMidYMid meet">
<metadata>
Created by potrace 1.11, written by Peter Selinger 2001-2013
</metadata>
<g transform="translate(0.000000,400.000000) scale(0.100000,-0.100000)"
fill="#000000" stroke="none">
<path d="M2870 3583 c-52 -65 -97 -120 -100 -123 -3 -3 -62 -75 -131 -160 -68
-85 -127 -157 -130 -160 -3 -3 -36 -43 -73 -90 -38 -47 -84 -103 -101 -125
-18 -22 -112 -137 -208 -255 -96 -119 -181 -221 -189 -228 -12 -10 -18 -8 -30
6 -8 9 -151 204 -318 432 -167 228 -311 423 -321 434 -16 18 -41 19 -544 18
-530 0 -545 -1 -545 -32 0 -4 575 -761 623 -820 7 -8 100 -130 207 -270 106
-140 207 -272 223 -292 l29 -37 -163 -201 c-164 -203 -396 -487 -427 -525 -9
-11 -53 -65 -97 -120 -44 -55 -82 -102 -85 -105 -3 -3 -35 -41 -70 -85 -36
-43 -73 -88 -82 -100 -75 -91 -325 -399 -332 -409 -5 -8 -6 -21 -3 -30 6 -15
57 -16 560 -16 l554 0 108 138 c60 75 119 148 131 162 12 14 67 82 123 152 55
69 107 135 115 145 8 10 68 83 131 163 171 213 186 230 199 230 6 -1 34 -31
61 -68 28 -37 84 -110 125 -163 41 -53 147 -190 235 -305 88 -115 164 -214
170 -220 5 -7 19 -24 30 -40 28 -39 68 -88 78 -95 10 -7 1064 -10 1090 -3 9 3
17 12 17 19 0 11 -164 228 -267 355 -7 8 -154 197 -328 420 -174 223 -321 412
-328 420 -7 8 -52 67 -101 130 -49 63 -96 122 -103 131 -14 17 10 50 267 369
16 19 85 107 155 195 70 88 134 169 143 180 9 11 69 85 131 165 63 80 118 147
121 150 3 3 37 46 75 95 38 50 72 92 75 95 3 3 101 125 218 271 153 193 212
274 212 293 l0 26 -518 0 -518 0 -94 -117z"/>
</g>
</svg>
