<?xml version="1.0" encoding="utf-8"?>
<!-- Generator: Adobe Illustrator 16.0.0, SVG Export Plug-In . SVG Version: 6.00 Build 0)  -->
<!DOCTYPE svg PUBLIC "-//W3C//DTD SVG 1.1//EN" "http://www.w3.org/Graphics/SVG/1.1/DTD/svg11.dtd">
<svg version="1.1" id="Ñëîé_1" xmlns="http://www.w3.org/2000/svg" xmlns:xlink="http://www.w3.org/1999/xlink" x="0px" y="0px"
	 width="557px" height="85px" viewBox="0 0 557 85" enable-background="new 0 0 557 85" xml:space="preserve">
<g display="none">
	<rect y="-188.5" display="inline" fill="#795AA4" width="566.218" height="342.333"/>
</g>
<g>
	<g>
		<path fill="#513B7E" d="M252.488-93.043h-8.277v14.862h-8.499v-14.862h-24.34l-0.534-2.625c0.326-1.869,1.031-4.02,2.114-6.452
			c1.083-2.433,2.395-4.969,3.938-7.609c1.542-2.64,3.241-5.295,5.095-7.965c1.854-2.67,3.708-5.184,5.562-7.542
			c1.854-2.358,3.633-4.473,5.34-6.341c1.705-1.869,3.196-3.322,4.472-4.361h6.853v36.177h8.277V-93.043z M235.712-99.762v-22.249
			c0-0.415,0-0.882,0-1.401c0-0.519,0.029-1.061,0.089-1.624c-0.149,0.148-0.252,0.305-0.312,0.467
			c-0.06,0.164-0.164,0.319-0.312,0.468c-0.445,0.444-1.053,1.127-1.825,2.047s-1.624,2.002-2.559,3.248
			c-0.934,1.246-1.929,2.625-2.981,4.139c-1.054,1.513-2.077,3.1-3.07,4.761c-0.995,1.662-1.936,3.353-2.826,5.072
			c-0.89,1.722-1.662,3.412-2.314,5.073H235.712z"/>
		<path fill="#513B7E" d="M299.485-107.149c0,4.657-0.452,8.833-1.357,12.526s-2.218,6.815-3.938,9.366
			c-1.721,2.552-3.819,4.502-6.297,5.852c-2.477,1.35-5.288,2.024-8.432,2.024c-3.115,0-5.859-0.631-8.232-1.891
			c-2.374-1.261-4.361-3.1-5.963-5.518c-1.602-2.418-2.811-5.392-3.626-8.922s-1.224-7.564-1.224-12.104
			c0-4.924,0.408-9.292,1.224-13.104c0.816-3.812,2.062-7.022,3.738-9.634c1.676-2.61,3.775-4.59,6.296-5.94
			c2.521-1.35,5.473-2.024,8.855-2.024C293.167-136.517,299.485-126.728,299.485-107.149z M290.765-106.526
			c0-7.742-0.891-13.534-2.671-17.376c-1.779-3.842-4.39-5.763-7.831-5.763c-3.679,0-6.452,1.951-8.321,5.852
			c-1.869,3.901-2.803,9.812-2.803,17.732c0,7.297,0.919,12.756,2.759,16.375c1.839,3.619,4.539,5.429,8.099,5.429
			c3.53,0,6.207-1.84,8.031-5.519C289.853-93.473,290.765-99.05,290.765-106.526z"/>
		<path fill="#513B7E" d="M349.064-93.043h-8.276v14.862h-8.499v-14.862h-24.341l-0.533-2.625c0.326-1.869,1.03-4.02,2.113-6.452
			s2.396-4.969,3.938-7.609c1.542-2.64,3.24-5.295,5.095-7.965c1.854-2.67,3.708-5.184,5.562-7.542
			c1.854-2.358,3.634-4.473,5.34-6.341c1.706-1.869,3.196-3.322,4.473-4.361h6.853v36.177h8.276V-93.043z M332.289-99.762v-22.249
			c0-0.415,0-0.882,0-1.401c0-0.519,0.029-1.061,0.089-1.624c-0.149,0.148-0.253,0.305-0.312,0.467
			c-0.06,0.164-0.163,0.319-0.312,0.468c-0.445,0.444-1.054,1.127-1.824,2.047c-0.772,0.92-1.624,2.002-2.559,3.248
			s-1.929,2.625-2.981,4.139c-1.054,1.513-2.077,3.1-3.07,4.761c-0.994,1.662-1.936,3.353-2.826,5.072
			c-0.89,1.722-1.661,3.412-2.313,5.073H332.289z"/>
	</g>
	<g>
		<g>
			<path fill="#F5F9FC" d="M250.154-96.043h-8.277v14.862h-8.499v-14.862h-24.34l-0.534-2.625c0.326-1.869,1.031-4.02,2.114-6.452
				c1.083-2.433,2.395-4.969,3.938-7.609c1.542-2.64,3.241-5.295,5.095-7.965c1.854-2.67,3.708-5.184,5.562-7.542
				c1.854-2.358,3.633-4.473,5.34-6.341c1.705-1.869,3.196-3.322,4.472-4.361h6.853v36.177h8.277V-96.043z M233.378-102.762v-22.249
				c0-0.415,0-0.882,0-1.401c0-0.519,0.029-1.061,0.089-1.624c-0.149,0.148-0.252,0.305-0.312,0.467
				c-0.06,0.164-0.164,0.319-0.312,0.468c-0.445,0.444-1.053,1.127-1.825,2.047s-1.624,2.002-2.559,3.248
				c-0.934,1.246-1.929,2.625-2.981,4.139c-1.054,1.513-2.077,3.1-3.07,4.761c-0.995,1.662-1.936,3.353-2.826,5.072
				c-0.89,1.722-1.662,3.412-2.314,5.073H233.378z"/>
		</g>
		<g>
			<path fill="#F5F9FC" d="M297.152-110.149c0,4.657-0.453,8.833-1.357,12.526c-0.905,3.693-2.218,6.815-3.938,9.366
				c-1.721,2.552-3.819,4.502-6.296,5.852c-2.477,1.35-5.288,2.024-8.432,2.024c-3.115,0-5.859-0.631-8.232-1.891
				c-2.374-1.261-4.361-3.1-5.963-5.518c-1.602-2.418-2.811-5.392-3.626-8.922s-1.224-7.564-1.224-12.104
				c0-4.924,0.408-9.292,1.224-13.104c0.816-3.812,2.062-7.022,3.738-9.634c1.676-2.61,3.775-4.59,6.296-5.94
				c2.521-1.35,5.473-2.024,8.855-2.024C290.834-139.517,297.152-129.728,297.152-110.149z M288.431-109.526
				c0-7.742-0.89-13.534-2.67-17.376c-1.78-3.842-4.391-5.763-7.832-5.763c-3.679,0-6.452,1.951-8.321,5.852
				c-1.869,3.901-2.803,9.812-2.803,17.732c0,7.297,0.919,12.756,2.759,16.375c1.839,3.619,4.539,5.429,8.099,5.429
				c3.53,0,6.207-1.84,8.032-5.519C287.519-96.473,288.431-102.05,288.431-109.526z"/>
		</g>
		<g>
			<path fill="#F5F9FC" d="M346.731-96.043h-8.276v14.862h-8.499v-14.862h-24.341l-0.534-2.625c0.327-1.869,1.031-4.02,2.114-6.452
				s2.396-4.969,3.938-7.609c1.542-2.64,3.24-5.295,5.095-7.965c1.854-2.67,3.708-5.184,5.562-7.542
				c1.854-2.358,3.634-4.473,5.34-6.341c1.706-1.869,3.196-3.322,4.473-4.361h6.853v36.177h8.276V-96.043z M329.956-102.762v-22.249
				c0-0.415,0-0.882,0-1.401c0-0.519,0.029-1.061,0.089-1.624c-0.149,0.148-0.253,0.305-0.312,0.467
				c-0.06,0.164-0.163,0.319-0.312,0.468c-0.445,0.444-1.054,1.127-1.824,2.047c-0.772,0.92-1.624,2.002-2.559,3.248
				s-1.929,2.625-2.981,4.139c-1.054,1.513-2.077,3.1-3.07,4.761c-0.994,1.662-1.936,3.353-2.826,5.072
				c-0.89,1.722-1.661,3.412-2.313,5.073H329.956z"/>
		</g>
	</g>
	<g>
		<path fill="#FFFEFD" d="M199.447-70.523l-3.066,10.857h-1.491l-2.233-7.936c-0.097-0.338-0.154-0.706-0.175-1.104h-0.03
			c-0.03,0.373-0.096,0.736-0.196,1.09l-2.249,7.95h-1.477l-3.18-10.857h1.4l2.31,8.328c0.096,0.349,0.156,0.712,0.182,1.091h0.038
			c0.024-0.268,0.103-0.631,0.234-1.091l2.4-8.328h1.219l2.302,8.389c0.081,0.288,0.142,0.626,0.182,1.015h0.03
			c0.021-0.262,0.089-0.61,0.204-1.045l2.219-8.358H199.447z"/>
		<path fill="#FFFEFD" d="M207.717-59.666h-1.241v-4.467c0-1.615-0.601-2.424-1.802-2.424c-0.606,0-1.116,0.234-1.53,0.701
			s-0.62,1.066-0.62,1.798v4.392h-1.242v-11.479h1.242v5.013h0.03c0.595-0.979,1.443-1.47,2.544-1.47
			c1.746,0,2.619,1.053,2.619,3.158V-59.666z"/>
		<path fill="#FFFEFD" d="M213.685-59.484c-1.146,0-2.061-0.362-2.744-1.087c-0.685-0.724-1.026-1.685-1.026-2.881
			c0-1.302,0.356-2.319,1.068-3.051c0.711-0.732,1.673-1.099,2.885-1.099c1.155,0,2.058,0.356,2.706,1.068
			c0.649,0.712,0.974,1.698,0.974,2.96c0,1.237-0.35,2.228-1.049,2.972C215.799-59.856,214.861-59.484,213.685-59.484z
			 M213.776-66.557c-0.798,0-1.429,0.271-1.894,0.814c-0.464,0.543-0.696,1.291-0.696,2.245c0,0.919,0.234,1.643,0.704,2.173
			s1.098,0.795,1.886,0.795c0.802,0,1.419-0.26,1.851-0.779c0.432-0.521,0.647-1.26,0.647-2.219c0-0.97-0.216-1.717-0.647-2.241
			C215.195-66.294,214.578-66.557,213.776-66.557z"/>
		<path fill="#FFFEFD" d="M223.158-59.484c-1.146,0-2.061-0.362-2.744-1.087c-0.685-0.724-1.026-1.685-1.026-2.881
			c0-1.302,0.356-2.319,1.068-3.051c0.711-0.732,1.673-1.099,2.885-1.099c1.155,0,2.058,0.356,2.706,1.068
			c0.649,0.712,0.974,1.698,0.974,2.96c0,1.237-0.35,2.228-1.049,2.972C225.272-59.856,224.335-59.484,223.158-59.484z
			 M223.25-66.557c-0.798,0-1.429,0.271-1.894,0.814c-0.464,0.543-0.696,1.291-0.696,2.245c0,0.919,0.234,1.643,0.704,2.173
			s1.098,0.795,1.886,0.795c0.802,0,1.419-0.26,1.851-0.779c0.432-0.521,0.647-1.26,0.647-2.219c0-0.97-0.216-1.717-0.647-2.241
			C224.669-66.294,224.052-66.557,223.25-66.557z"/>
		<path fill="#FFFEFD" d="M230.664-60.786h-0.03v4.687h-1.242v-11.319h1.242v1.362h0.03c0.61-1.029,1.504-1.545,2.68-1.545
			c1,0,1.779,0.348,2.34,1.042c0.561,0.693,0.841,1.624,0.841,2.79c0,1.297-0.315,2.336-0.946,3.115
			c-0.632,0.78-1.495,1.17-2.59,1.17C231.983-59.484,231.209-59.918,230.664-60.786z M230.634-63.914v1.083
			c0,0.642,0.208,1.186,0.624,1.632c0.417,0.446,0.945,0.67,1.587,0.67c0.752,0,1.341-0.288,1.768-0.863s0.64-1.375,0.64-2.4
			c0-0.862-0.199-1.539-0.598-2.028c-0.399-0.49-0.939-0.735-1.621-0.735c-0.722,0-1.302,0.252-1.741,0.754
			S230.634-64.671,230.634-63.914z"/>
		<path fill="#FFFEFD" d="M238.426-59.946v-1.332c0.677,0.499,1.421,0.749,2.234,0.749c1.09,0,1.635-0.363,1.635-1.09
			c0-0.207-0.047-0.383-0.14-0.526c-0.094-0.145-0.22-0.271-0.379-0.383c-0.159-0.11-0.346-0.211-0.561-0.299
			c-0.214-0.088-0.445-0.181-0.692-0.276c-0.344-0.137-0.645-0.273-0.905-0.413c-0.26-0.139-0.477-0.295-0.65-0.469
			c-0.175-0.175-0.306-0.372-0.394-0.595c-0.089-0.222-0.133-0.481-0.133-0.78c0-0.363,0.083-0.685,0.25-0.965
			c0.166-0.28,0.389-0.515,0.666-0.704s0.595-0.332,0.95-0.428s0.723-0.145,1.102-0.145c0.672,0,1.272,0.116,1.802,0.349v1.257
			c-0.57-0.373-1.227-0.561-1.968-0.561c-0.232,0-0.442,0.027-0.629,0.08s-0.347,0.127-0.48,0.224
			c-0.134,0.096-0.237,0.21-0.311,0.344s-0.11,0.282-0.11,0.443c0,0.202,0.037,0.371,0.11,0.507
			c0.073,0.137,0.181,0.258,0.321,0.364c0.142,0.105,0.313,0.201,0.516,0.287c0.201,0.086,0.432,0.18,0.688,0.28
			c0.344,0.132,0.651,0.267,0.924,0.405s0.505,0.295,0.696,0.47c0.192,0.174,0.34,0.374,0.443,0.602s0.155,0.497,0.155,0.811
			c0,0.383-0.085,0.717-0.254,0.999c-0.169,0.283-0.395,0.518-0.678,0.704c-0.282,0.187-0.608,0.325-0.977,0.417
			c-0.368,0.091-0.755,0.136-1.158,0.136C239.703-59.484,239.012-59.639,238.426-59.946z"/>
		<path fill="#FFFEFD" d="M246.295-59.499c-0.232,0-0.431-0.084-0.595-0.25c-0.164-0.167-0.246-0.366-0.246-0.599
			c0-0.231,0.082-0.433,0.246-0.602s0.362-0.254,0.595-0.254c0.237,0,0.439,0.085,0.605,0.254c0.167,0.169,0.25,0.37,0.25,0.602
			c0,0.232-0.083,0.432-0.25,0.599C246.734-59.583,246.532-59.499,246.295-59.499z"/>
		<path fill="#FFFEFD" d="M250.044-59.499c-0.232,0-0.431-0.084-0.595-0.25c-0.164-0.167-0.246-0.366-0.246-0.599
			c0-0.231,0.082-0.433,0.246-0.602s0.362-0.254,0.595-0.254c0.237,0,0.439,0.085,0.605,0.254c0.167,0.169,0.25,0.37,0.25,0.602
			c0,0.232-0.083,0.432-0.25,0.599C250.483-59.583,250.281-59.499,250.044-59.499z"/>
		<path fill="#FFFEFD" d="M253.794-59.499c-0.232,0-0.431-0.084-0.595-0.25c-0.164-0.167-0.246-0.366-0.246-0.599
			c0-0.231,0.082-0.433,0.246-0.602s0.362-0.254,0.595-0.254c0.237,0,0.439,0.085,0.605,0.254c0.167,0.169,0.25,0.37,0.25,0.602
			c0,0.232-0.083,0.432-0.25,0.599C254.233-59.583,254.031-59.499,253.794-59.499z"/>
		<path fill="#FFFEFD" d="M258.55-63.77v4.104h-1.271v-10.857h2.982c1.161,0,2.062,0.282,2.7,0.848
			c0.638,0.565,0.957,1.363,0.957,2.393c0,1.03-0.354,1.873-1.063,2.529s-1.667,0.984-2.873,0.984H258.55z M258.55-69.373v4.452
			h1.333c0.878,0,1.548-0.2,2.01-0.602s0.693-0.968,0.693-1.7c0-1.434-0.849-2.15-2.544-2.15H258.55z"/>
		<path fill="#FFFEFD" d="M271.233-59.666h-1.241v-1.212h-0.03c-0.54,0.93-1.336,1.394-2.386,1.394
			c-0.771,0-1.377-0.204-1.813-0.613s-0.654-0.951-0.654-1.628c0-1.448,0.853-2.292,2.559-2.529l2.325-0.325
			c0-1.317-0.533-1.977-1.598-1.977c-0.935,0-1.777,0.318-2.529,0.954v-1.271c0.763-0.484,1.641-0.728,2.635-0.728
			c1.822,0,2.733,0.965,2.733,2.893V-59.666z M269.992-63.588l-1.87,0.257c-0.576,0.081-1.01,0.224-1.303,0.428
			c-0.293,0.205-0.439,0.567-0.439,1.087c0,0.379,0.136,0.688,0.405,0.928c0.271,0.239,0.63,0.359,1.079,0.359
			c0.616,0,1.124-0.216,1.525-0.647s0.603-0.978,0.603-1.639V-63.588z"/>
		<path fill="#FFFEFD" d="M280.578-60.287c0,2.847-1.362,4.271-4.088,4.271c-0.959,0-1.798-0.182-2.514-0.545v-1.242
			c0.873,0.485,1.706,0.728,2.498,0.728c1.908,0,2.862-1.015,2.862-3.044v-0.849h-0.03c-0.591,0.99-1.479,1.484-2.665,1.484
			c-0.965,0-1.74-0.345-2.328-1.033c-0.589-0.689-0.883-1.614-0.883-2.775c0-1.317,0.317-2.364,0.95-3.142
			c0.634-0.777,1.501-1.167,2.602-1.167c1.045,0,1.819,0.42,2.324,1.258h0.03v-1.075h1.241V-60.287z M279.337-63.172v-1.144
			c0-0.615-0.208-1.143-0.625-1.582c-0.416-0.439-0.935-0.659-1.556-0.659c-0.768,0-1.368,0.279-1.802,0.837
			c-0.435,0.558-0.651,1.339-0.651,2.344c0,0.863,0.208,1.554,0.625,2.07c0.416,0.518,0.968,0.776,1.654,0.776
			c0.696,0,1.263-0.247,1.699-0.742C279.118-61.766,279.337-62.399,279.337-63.172z"/>
		<path fill="#FFFEFD" d="M289.712-63.232h-5.475c0.021,0.863,0.253,1.529,0.697,1.999c0.443,0.47,1.055,0.704,1.832,0.704
			c0.873,0,1.676-0.288,2.408-0.863v1.166c-0.682,0.495-1.583,0.742-2.703,0.742c-1.096,0-1.956-0.352-2.582-1.057
			c-0.626-0.704-0.939-1.694-0.939-2.972c0-1.206,0.342-2.189,1.026-2.949c0.684-0.76,1.533-1.14,2.548-1.14s1.8,0.329,2.354,0.984
			c0.556,0.656,0.833,1.567,0.833,2.733V-63.232z M288.439-64.285c-0.005-0.716-0.178-1.274-0.519-1.673s-0.813-0.599-1.419-0.599
			c-0.586,0-1.083,0.21-1.492,0.629c-0.408,0.419-0.661,0.967-0.757,1.643H288.439z"/>
		<path fill="#FFFEFD" d="M305.531-59.666h-1.56l-5.588-8.654c-0.141-0.217-0.257-0.444-0.348-0.682h-0.046
			c0.04,0.232,0.061,0.729,0.061,1.492v7.844h-1.271v-10.857h1.65l5.437,8.518c0.227,0.354,0.373,0.596,0.438,0.728h0.03
			c-0.05-0.313-0.075-0.846-0.075-1.598v-7.647h1.271V-59.666z"/>
		<path fill="#FFFEFD" d="M311.84-59.484c-1.146,0-2.061-0.362-2.744-1.087c-0.685-0.724-1.026-1.685-1.026-2.881
			c0-1.302,0.356-2.319,1.068-3.051c0.711-0.732,1.673-1.099,2.885-1.099c1.155,0,2.058,0.356,2.706,1.068
			c0.649,0.712,0.974,1.698,0.974,2.96c0,1.237-0.35,2.228-1.049,2.972C313.954-59.856,313.017-59.484,311.84-59.484z
			 M311.932-66.557c-0.798,0-1.429,0.271-1.894,0.814c-0.464,0.543-0.696,1.291-0.696,2.245c0,0.919,0.234,1.643,0.704,2.173
			s1.098,0.795,1.886,0.795c0.802,0,1.419-0.26,1.851-0.779c0.432-0.521,0.647-1.26,0.647-2.219c0-0.97-0.216-1.717-0.647-2.241
			C313.351-66.294,312.733-66.557,311.932-66.557z"/>
		<path fill="#FFFEFD" d="M321.67-59.742c-0.293,0.162-0.679,0.243-1.158,0.243c-1.358,0-2.037-0.758-2.037-2.271v-4.589h-1.333
			v-1.06h1.333v-1.894l1.242-0.401v2.295h1.953v1.06h-1.953v4.369c0,0.52,0.088,0.891,0.265,1.112
			c0.177,0.223,0.47,0.334,0.878,0.334c0.313,0,0.583-0.086,0.811-0.258V-59.742z"/>
		<path fill="#FFFEFD" d="M334.03-69.373h-4.24v3.756h3.922v1.144h-3.922v4.808h-1.271v-10.857h5.512V-69.373z"/>
		<path fill="#FFFEFD" d="M339.551-59.484c-1.146,0-2.061-0.362-2.744-1.087c-0.685-0.724-1.026-1.685-1.026-2.881
			c0-1.302,0.356-2.319,1.068-3.051c0.711-0.732,1.673-1.099,2.885-1.099c1.155,0,2.058,0.356,2.706,1.068
			c0.649,0.712,0.974,1.698,0.974,2.96c0,1.237-0.35,2.228-1.049,2.972C341.665-59.856,340.728-59.484,339.551-59.484z
			 M339.643-66.557c-0.798,0-1.429,0.271-1.894,0.814c-0.464,0.543-0.696,1.291-0.696,2.245c0,0.919,0.234,1.643,0.704,2.173
			s1.098,0.795,1.886,0.795c0.802,0,1.419-0.26,1.851-0.779c0.432-0.521,0.647-1.26,0.647-2.219c0-0.97-0.216-1.717-0.647-2.241
			C341.062-66.294,340.444-66.557,339.643-66.557z"/>
		<path fill="#FFFEFD" d="M352.054-59.666h-1.242v-1.227h-0.03c-0.515,0.938-1.313,1.408-2.393,1.408
			c-1.848,0-2.771-1.101-2.771-3.301v-4.634h1.234v4.437c0,1.636,0.626,2.453,1.878,2.453c0.605,0,1.104-0.224,1.495-0.67
			c0.392-0.446,0.587-1.031,0.587-1.753v-4.467h1.242V-59.666z"/>
		<path fill="#FFFEFD" d="M361.383-59.666h-1.241v-4.422c0-1.646-0.601-2.469-1.802-2.469c-0.621,0-1.135,0.234-1.541,0.701
			s-0.609,1.056-0.609,1.768v4.422h-1.242v-7.753h1.242v1.287h0.03c0.585-0.979,1.434-1.47,2.544-1.47
			c0.848,0,1.496,0.274,1.945,0.822s0.674,1.339,0.674,2.373V-59.666z"/>
		<path fill="#FFFEFD" d="M370.728-59.666h-1.241v-1.317h-0.03c-0.575,0.999-1.464,1.499-2.665,1.499
			c-0.975,0-1.753-0.347-2.336-1.041s-0.875-1.64-0.875-2.836c0-1.281,0.323-2.309,0.97-3.081c0.646-0.772,1.507-1.159,2.582-1.159
			c1.064,0,1.84,0.42,2.324,1.258h0.03v-4.801h1.241V-59.666z M369.486-63.172v-1.144c0-0.625-0.207-1.155-0.621-1.59
			c-0.414-0.434-0.938-0.651-1.575-0.651c-0.757,0-1.353,0.278-1.786,0.833c-0.435,0.556-0.651,1.323-0.651,2.302
			c0,0.894,0.208,1.6,0.625,2.116c0.416,0.518,0.975,0.776,1.677,0.776c0.691,0,1.253-0.25,1.685-0.749
			C369.271-61.778,369.486-62.409,369.486-63.172z"/>
		<path fill="#FFFEFD" d="M374.062-65.905c-0.232,0-0.431-0.083-0.595-0.25c-0.164-0.166-0.246-0.365-0.246-0.598
			s0.082-0.429,0.246-0.591c0.164-0.161,0.362-0.242,0.595-0.242c0.237,0,0.439,0.081,0.605,0.242
			c0.167,0.162,0.25,0.358,0.25,0.591s-0.083,0.432-0.25,0.598C374.501-65.988,374.299-65.905,374.062-65.905z M374.062-59.499
			c-0.232,0-0.431-0.084-0.595-0.25c-0.164-0.167-0.246-0.366-0.246-0.599c0-0.231,0.082-0.433,0.246-0.602s0.362-0.254,0.595-0.254
			c0.237,0,0.439,0.085,0.605,0.254c0.167,0.169,0.25,0.37,0.25,0.602c0,0.232-0.083,0.432-0.25,0.599
			C374.501-59.583,374.299-59.499,374.062-59.499z"/>
		<path fill="#FFFEFD" d="M380.635-57.197h-1.105c-1.564-1.787-2.348-3.99-2.348-6.61c0-2.63,0.783-4.868,2.348-6.716h1.121
			c-1.586,1.918-2.378,4.151-2.378,6.7C378.272-61.294,379.06-59.086,380.635-57.197z"/>
	</g>
	<g>
		<g>
			<path fill="#EF8A2B" d="M339.606-20.662h-114c-6.6,0-12-5.4-12-12v-2.986c0-6.6,5.4-12,12-12h114c6.601,0,12,5.4,12,12v2.986
				C351.606-26.062,346.207-20.662,339.606-20.662z"/>
		</g>
		<g>
			<path fill="#D16A15" d="M339.606-20.162h-114c-6.893,0-12.5-5.607-12.5-12.5v-2.986c0-6.893,5.607-12.5,12.5-12.5h114
				c6.893,0,12.5,5.607,12.5,12.5v2.986C352.106-25.77,346.499-20.162,339.606-20.162z M225.607-47.148
				c-6.341,0-11.5,5.159-11.5,11.5v2.986c0,6.341,5.159,11.5,11.5,11.5h114c6.341,0,11.5-5.159,11.5-11.5v-2.986
				c0-6.341-5.159-11.5-11.5-11.5H225.607z"/>
		</g>
	</g>
	<g>
		<path fill="#F7E2D0" d="M249.637-28.704c-1.252,0.708-2.644,1.062-4.174,1.062c-1.779,0-3.218-0.574-4.317-1.722
			s-1.647-2.667-1.647-4.557c0-1.93,0.61-3.514,1.83-4.751c1.22-1.238,2.767-1.856,4.639-1.856c1.356,0,2.496,0.22,3.417,0.66v1.617
			c-1.008-0.637-2.203-0.956-3.582-0.956c-1.397,0-2.542,0.481-3.435,1.443s-1.339,2.209-1.339,3.739
			c0,1.576,0.414,2.815,1.243,3.717s1.954,1.352,3.374,1.352c0.974,0,1.817-0.194,2.53-0.582v-3.495h-2.73v-1.322h4.191V-28.704z"/>
		<path fill="#F7E2D0" d="M258.002-27.643c-1.768,0-3.184-0.583-4.248-1.748c-1.063-1.165-1.595-2.681-1.595-4.547
			c0-2.006,0.542-3.605,1.626-4.8s2.559-1.791,4.425-1.791c1.722,0,3.108,0.579,4.161,1.738c1.052,1.16,1.578,2.676,1.578,4.548
			c0,2.034-0.539,3.644-1.617,4.825C261.254-28.234,259.811-27.643,258.002-27.643z M258.107-39.207
			c-1.31,0-2.374,0.473-3.191,1.417c-0.817,0.945-1.226,2.186-1.226,3.722s0.398,2.772,1.195,3.708
			c0.797,0.937,1.836,1.404,3.117,1.404c1.368,0,2.446-0.446,3.234-1.339c0.789-0.893,1.183-2.142,1.183-3.747
			c0-1.646-0.382-2.919-1.147-3.817S259.452-39.207,258.107-39.207z"/>
		<path fill="#F7E2D0" d="M281.543-27.852h-1.461v-5.687h-6.452v5.687h-1.46V-40.32h1.46v5.47h6.452v-5.47h1.461V-27.852z"/>
		<path fill="#F7E2D0" d="M290.283-27.643c-1.768,0-3.184-0.583-4.247-1.748c-1.064-1.165-1.596-2.681-1.596-4.547
			c0-2.006,0.542-3.605,1.626-4.8s2.559-1.791,4.426-1.791c1.722,0,3.108,0.579,4.16,1.738c1.052,1.16,1.578,2.676,1.578,4.548
			c0,2.034-0.539,3.644-1.617,4.825C293.535-28.234,292.092-27.643,290.283-27.643z M290.388-39.207
			c-1.311,0-2.374,0.473-3.191,1.417c-0.817,0.945-1.226,2.186-1.226,3.722s0.398,2.772,1.195,3.708
			c0.797,0.937,1.836,1.404,3.117,1.404c1.368,0,2.446-0.446,3.234-1.339s1.183-2.142,1.183-3.747c0-1.646-0.383-2.919-1.147-3.817
			C292.787-38.758,291.732-39.207,290.388-39.207z"/>
		<path fill="#F7E2D0" d="M311.84-27.852h-1.452v-8.364c0-0.661,0.04-1.47,0.122-2.426h-0.035c-0.14,0.563-0.264,0.965-0.374,1.208
			l-4.261,9.582h-0.713l-4.252-9.512c-0.121-0.278-0.246-0.705-0.373-1.278h-0.035c0.046,0.498,0.069,1.313,0.069,2.443v8.347
			h-1.408V-40.32h1.93l3.826,8.695c0.296,0.667,0.487,1.165,0.574,1.495h0.052c0.249-0.684,0.449-1.193,0.6-1.53l3.904-8.66h1.826
			V-27.852z"/>
		<path fill="#F7E2D0" d="M322.17-27.852h-6.607V-40.32h6.33v1.322h-4.869v4.147h4.504v1.313h-4.504v4.365h5.146V-27.852z"/>
	</g>
</g>
<g>
	<rect y="31.943" width="458.667" height="21"/>
</g>
<g>
	<path d="M494.165,81.443h-4c-21.539,0-39-17.461-39-39l0,0c0-21.539,17.461-39,39-39h4V81.443z"/>
</g>
<g>
	<path d="M545.165,24.443h-37c-4.399,0-8-3.6-8-8l0,0c0-4.399,3.601-8,8-8h37c4.4,0,8,3.601,8,8l0,0
		C553.165,20.844,549.565,24.443,545.165,24.443z"/>
</g>
<g>
	<path d="M545.165,74.443h-37c-4.399,0-8-3.6-8-8l0,0c0-4.399,3.601-8,8-8h37c4.4,0,8,3.601,8,8l0,0
		C553.165,70.844,549.565,74.443,545.165,74.443z"/>
</g>
<polygon fill="#E7E8EA" points="238.426,29.5 225.663,38.654 232.958,42.222 223.204,45.925 232.958,49.155 219.388,54.943 
	334.03,54.943 328.519,49.963 334.03,45.116 328.519,42.222 334.03,37.039 322.239,33.809 334.03,29.5 "/>
<polygon fill="#F0B800" points="236.524,24.443 229.333,16.443 232.958,12.166 "/>
<polygon fill="#F0B800" points="260.95,36.166 268.171,12.166 278.543,18.305 "/>
<polygon fill="#F0B800" points="252.953,50.166 265.108,69.5 259.031,74.443 "/>
<polygon fill="#F0B800" points="312.372,32.852 291.558,20.428 297.687,12.833 "/>
<polygon fill="#F0B800" points="286.669,75.4 306.584,53.525 296.027,77.139 "/>
<polygon fill="#F0B800" points="303.387,41.879 296.761,52.942 293.207,46.892 "/>
<polygon fill="#F0B800" points="277.403,61.906 267.087,50.365 281.197,55.391 "/>
<polygon fill="#F0B800" points="322.239,50.166 319.17,62.305 325.333,62.305 "/>
<polygon fill="#F0B800" points="236.524,52.943 246.637,66.443 236.524,67.193 "/>
<polygon fill="#F0B800" points="242.88,34.282 249.877,36.166 242.88,38.051 240.997,45.048 239.113,38.051 232.116,36.166 
	239.113,34.282 240.997,27.285 "/>
<polygon fill="#F0B800" points="325.396,71.824 330.38,73.165 325.396,74.507 324.055,79.49 322.713,74.507 317.73,73.165 
	322.713,71.824 324.055,66.841 "/>
<polygon fill="#F0B800" points="288.677,28.158 293.66,29.5 288.677,30.842 287.335,35.824 285.994,30.842 281.011,29.5 
	285.994,28.158 287.335,23.175 "/>
</svg>
