<svg width="118" height="26" viewBox="0 0 118 26" fill="none" xmlns="http://www.w3.org/2000/svg">
<path d="M0.834923 25.2687L9.85611 14.1808C9.90597 14.1204 9.9068 14.0335 9.85943 13.9723L2.14456 3.87914C2.0598 3.76824 2.13957 3.60852 2.27918 3.60852H9.7539C9.80791 3.60852 9.8586 3.63418 9.89101 3.67721L14.5628 10.0462C14.6285 10.1348 14.7606 10.1381 14.8304 10.052L22.1705 1.01407C22.2021 0.974344 22.2511 0.951172 22.3018 0.951172H29.5613C29.7025 0.951172 29.7815 1.11338 29.6934 1.22427L19.523 13.9888C19.4739 14.0492 19.4739 14.137 19.5221 14.1965L27.66 24.6075C27.7464 24.7192 27.6675 24.8789 27.5262 24.8789H19.8462C19.7939 24.8789 19.7432 24.8549 19.7116 24.8127L14.7872 18.4238C14.7199 18.3369 14.5894 18.3361 14.5204 18.4213L8.86142 25.4797C8.82901 25.5186 8.78081 25.5418 8.72929 25.5418H0.96705C0.824951 25.5426 0.746008 25.3788 0.834923 25.2687ZM99.1281 16.1066H106.147C106.305 16.1066 106.407 15.9369 106.33 15.7996L102.782 9.35936C102.702 9.21536 102.494 9.21619 102.416 9.36101L98.9436 15.8012C98.8697 15.9394 98.9719 16.1066 99.1281 16.1066ZM94.379 24.2516H88.1566C87.9987 24.2516 87.8973 24.0828 87.9738 23.9438L98.7201 4.34507C98.7567 4.27803 98.8273 4.23665 98.9037 4.23665H106.481C106.558 4.23665 106.629 4.27886 106.665 4.34672L117.214 23.9471C117.289 24.0853 117.189 24.2533 117.03 24.2533H110.763C110.689 24.2533 110.62 24.2127 110.582 24.1498L108.757 21.0241C108.719 20.9612 108.651 20.9206 108.576 20.9206H96.5761C96.5022 20.9206 96.4332 20.9595 96.3958 21.0232L94.5593 24.1506C94.5211 24.2127 94.453 24.2516 94.379 24.2516ZM37.7614 24.4949C35.4164 24.4949 33.6979 24.3898 32.6052 24.1788C31.5182 23.9653 30.6341 23.6094 29.9493 23.093C29.179 22.5203 28.6156 21.773 28.2766 20.8453C27.9342 19.9143 27.7647 18.6845 27.7647 17.1535V11.6956C27.7647 10.0214 27.9342 8.6915 28.2766 7.7191C28.6156 6.74256 29.179 5.96712 29.9493 5.39112C30.6249 4.88713 31.5224 4.52879 32.6434 4.31362C33.7627 4.09762 35.4588 3.99335 37.7332 3.99335H44.9578C47.2422 3.99335 48.949 4.09762 50.0808 4.31362C51.2101 4.52879 52.1084 4.88713 52.7707 5.39112C53.5186 5.95636 54.0654 6.72601 54.4111 7.7042C54.7576 8.68157 54.9321 9.92956 54.9321 11.4531V17.0327C54.9321 18.5736 54.7576 19.8274 54.4111 20.7907C54.0654 21.7556 53.5186 22.5203 52.7707 23.093C52.0993 23.6086 51.206 23.9653 50.0999 24.1788C48.9947 24.389 47.2804 24.4949 44.9578 24.4949H37.7614ZM39.4259 19.4939H43.3224C45.4921 19.4939 46.9305 19.2216 47.6444 18.682C48.3532 18.1408 48.7097 17.1303 48.7097 15.6638V12.8277C48.7097 11.3596 48.3532 10.3508 47.6444 9.80873C46.9305 9.2675 45.4921 8.99688 43.3224 8.99688H39.3968C37.1806 8.99688 35.7289 9.27246 35.0433 9.81866C34.3569 10.3649 34.0112 11.401 34.0112 12.9345V15.7201C34.0112 17.1593 34.3743 18.1515 35.0973 18.6878C35.8219 19.2216 37.2637 19.4939 39.4259 19.4939ZM85.5839 24.2516H76.9333C76.8643 24.2516 76.7995 24.221 76.7563 24.1672L65.1807 10.1845C65.0444 10.0189 64.7735 10.1158 64.7735 10.3301V24.0224C64.7735 24.149 64.6713 24.2516 64.545 24.2516H58.8751C58.748 24.2516 58.645 24.149 58.645 24.0224V4.46507C58.645 4.33845 58.748 4.23583 58.8751 4.23583H67.6213C67.6902 4.23583 67.7559 4.26727 67.7999 4.32107L79.2925 18.4147C79.4287 18.5811 79.7005 18.4859 79.7005 18.2707V4.02231C79.7005 3.89569 79.8035 3.7939 79.9298 3.7939H85.583C85.7093 3.7939 85.8115 3.89652 85.8115 4.02231V24.0224C85.814 24.149 85.7118 24.2516 85.5839 24.2516Z" fill="white"/>
</svg>
